<?xml version="1.0" encoding="UTF-8"?>
<svg id="Layer_1" xmlns="http://www.w3.org/2000/svg" version="1.1" viewBox="0 0 852 225">
  <!-- Generator: Adobe Illustrator 30.2.1, SVG Export Plug-In . SVG Version: 2.1.1 Build 1)  -->
  <g>
    <path d="M84.48,146.71l-.49-.74c-9.09,12.29-23.6,23.84-38.83,23.84-23.84,0-44.24-23.35-44.24-53.58,0-40.55,34.16-58.5,61.45-58.5,10.57,0,17.45,1.47,21.63,3.69,0,0,.49.49.49,0v-26.79c0-14.75-1.72-17.45-9.83-18.93l-8.11-1.47.25-.98L119.38.96v138.38c0,14.75,1.47,16.47,9.83,18.68l5.9,1.47-.25.98-50.63,9.58.25-23.35ZM84.48,143.02v-60.96c-6.64-12.29-17.21-21.88-23.6-21.88-14.75,0-21.88,21.38-21.88,47.68s10.32,43.75,26.55,43.75c8.6,0,13.76-3.93,18.93-8.6Z"/>
    <path d="M200.24,145.48l-.49-.49c-12.04,14.01-22.86,23.84-36.13,23.84-14.26,0-25.32-11.55-25.32-23.1,0-18.68,15.98-29.99,62.43-42.52l.25-9.09c.74-17.45-8.36-30.72-24.82-30.72-9.34,0-12.04,2.21-12.04,5.16,0,2.21,8.36,9.34,8.36,15.73,0,8.36-7.13,14.75-16.71,14.75-8.36,0-15.73-4.42-15.73-13.27,0-18.68,35.88-29,57.02-29,30.23,0,39.57,12.29,38.83,37.36l-1.97,44.73c-.49,9.83,4.18,14.26,9.59,14.26,3.93,0,7.62-4.42,10.32-8.36l1.72.74c-6.64,8.11-18.43,23.6-32.69,23.6-12.78,0-20.4-9.09-22.61-23.6ZM199.26,142.53l1.72-36.62c-21.14,5.65-28.76,13.76-28.76,26.79,0,9.83,4.67,16.96,14.01,16.96,5.41,0,9.34-3.2,13.03-7.13Z"/>
    <path d="M258.25,164.9l2.95-.25c7.62-.49,10.32-.98,10.32-3.93v-67.84c0-15.24-1.72-17.21-10.08-19.42l-5.65-1.23.25-.98,51.12-14.01-.74,38.83h.49c7.62-26.3,17.94-39.33,33.43-39.33,11.06,0,19.42,6.64,19.42,19.17,0,8.11-7.13,16.71-16.47,16.71-11.31,0-16.71-8.6-19.17-16.71-7.37.49-12.29,9.83-17.7,31.46v53.34c0,1.97,2.21,3.2,13.52,3.93l3.2.25.74,1.47h-66.36l.74-1.47Z"/>
    <path d="M361.73,164.9l3.2-.25c7.62-.49,8.85-.98,8.85-3.93V35.12c0-14.75-1.72-16.71-10.08-18.93l-5.41-1.47.25-.98,50.39-12.29v159.76c0,1.97,1.97,2.95,10.32,3.44l2.95.25.74,1.47h-62.18l.98-1.47Z"/>
    <path d="M431.78,164.9l2.95-.25c7.62-.49,10.32-.98,10.32-3.93v-67.84c0-15.24-1.72-17.21-10.08-19.42l-5.65-1.23.25-.98,50.39-14.01v103.97c0,1.97,1.47,2.21,12.78,3.44l1.97.25.74,1.47h-64.4l.74-1.47ZM440.62,24.06c0-10.08,7.62-20.15,20.89-20.15s20.89,10.08,20.89,20.15-7.37,20.15-20.89,20.15-20.89-10.32-20.89-20.15Z"/>
    <path d="M504.04,164.9l2.95-.25c7.62-.49,10.32-.98,10.32-3.93v-67.84c0-15.24-1.72-17.21-10.08-19.42l-5.65-1.23.25-.98,51.12-14.01-.74,22.12h.25c11.55-10.08,27.28-22.61,43.26-22.61,8.36,0,14.01,3.2,19.66,8.6,5.65,5.9,7.87,17.7,7.87,29.49v66.12c0,1.47,1.23,2.21,12.78,3.69l2.21.25.74,1.47h-63.66l.74-1.47,4.42-.25c8.6-.49,8.11-1.97,8.11-3.93v-62.43c0-15.98-8.11-20.89-18.93-20.89-8.11,0-12.78,2.46-17.45,5.16v78.65c0,1.97.98,2.7,9.59,3.44l3.69.25.49,1.47h-62.68l.74-1.47Z"/>
    <path d="M641.68,149.9c0-14.01,14.5-23.1,29.74-27.77-14.75-4.92-23.6-14.26-23.6-29.49,0-18.93,22.37-35.89,47.68-35.89,10.81,0,22.12,2.7,29.74,6.88l34.9-5.41-2.46,12.54-26.05-3.44-.25.49c7.62,6.14,11.55,14.26,11.55,23.1,0,19.17-20.89,34.16-48.17,34.16-7.13,0-13.52-.74-18.68-1.72-8.6,1.97-14.01,7.13-14.01,12.54s6.39,8.11,20.4,8.11c6.88,0,26.79-.74,35.64-.74,22.61,0,37.11,11.55,37.11,30.23,0,26.79-29.25,48.42-67.84,48.42-33.18,0-47.19-6.88-47.19-22.86,0-12.54,16.47-18.93,30.97-24.58-15.73-.49-29.5-12.54-29.5-24.58ZM734.59,191.94c0-14.26-10.57-18.19-33.43-18.93-6.15-.25-15.98.49-25.07,1.47-9.34,3.69-10.81,10.57-10.81,19.66,0,13.52,13.27,23.35,34.66,23.35s34.66-10.81,34.66-25.56ZM671.67,174.48v-.25l-.49.25h.49ZM710.25,91.41c0-20.65-5.16-31.71-14.99-31.71s-13.76,9.34-13.76,31.95,4.67,30.97,14.26,30.97c10.32,0,14.5-8.85,14.5-31.21Z"/>
    <path d="M766.54,163.18l-.74-30.97.98.49,6.64,10.08c10.08,16.71,16.96,24.82,32.44,24.82,11.55,0,18.68-6.88,18.68-17.94,0-12.04-12.04-16.96-25.56-22.61-18.43-7.37-32.94-14.75-32.94-33.92,0-22.12,17.45-36.13,42.77-36.13,8.11,0,17.7,1.97,24.09,4.18l11.31-2.21,1.23,33.67-.98.49-22.86-29.99c-3.93-2.21-8.11-3.93-13.27-3.93-10.57,0-17.21,6.64-17.21,17.7s12.29,15.98,26.3,21.63c15.48,6.88,33.67,13.76,33.67,34.66,0,18.43-13.52,36.62-45.96,36.62-15.49,0-29.5-3.2-38.59-6.64Z"/>
  </g>
</svg>